<mxfile host="app.diagrams.net" modified="2020-11-29T13:35:00.287Z" agent="5.0 (Macintosh; Intel Mac OS X 10_14_6) AppleWebKit/537.36 (KHTML, like Gecko) Chrome/86.0.4240.111 Safari/537.36" etag="WJykkN-_JKu8ti9iIsH6" version="13.10.2" type="github">
  <diagram id="PBJe3xCFQkrLJ3TgRgL_" name="Page-1">
    <mxGraphModel dx="1074" dy="784" grid="1" gridSize="10" guides="1" tooltips="1" connect="1" arrows="1" fold="1" page="1" pageScale="1" pageWidth="1654" pageHeight="1169" math="0" shadow="0">
      <root>
        <mxCell id="0" />
        <mxCell id="1" parent="0" />
        <mxCell id="jdo_Bs8H3Nefda1nTduL-1" value="User" style="whiteSpace=wrap;html=1;align=center;" parent="1" vertex="1">
          <mxGeometry x="750" y="300" width="100" height="40" as="geometry" />
        </mxCell>
        <mxCell id="jdo_Bs8H3Nefda1nTduL-9" value="Seller" style="shape=ext;margin=3;double=1;whiteSpace=wrap;html=1;align=center;" parent="1" vertex="1">
          <mxGeometry x="1300" y="460" width="100" height="40" as="geometry" />
        </mxCell>
        <mxCell id="jdo_Bs8H3Nefda1nTduL-10" value="Buyer" style="shape=ext;margin=3;double=1;whiteSpace=wrap;html=1;align=center;" parent="1" vertex="1">
          <mxGeometry x="230" y="470" width="100" height="40" as="geometry" />
        </mxCell>
        <mxCell id="jdo_Bs8H3Nefda1nTduL-14" value="" style="edgeStyle=entityRelationEdgeStyle;fontSize=12;html=1;endArrow=ERzeroToOne;endFill=1;rounded=1;exitX=0.5;exitY=1;exitDx=0;exitDy=0;entryX=0;entryY=0.5;entryDx=0;entryDy=0;" parent="1" source="yyaonT6aETKzKUPkDrwu-4" target="jdo_Bs8H3Nefda1nTduL-9" edge="1">
          <mxGeometry width="100" height="100" relative="1" as="geometry">
            <mxPoint x="1225" y="380" as="sourcePoint" />
            <mxPoint x="970" y="500" as="targetPoint" />
          </mxGeometry>
        </mxCell>
        <mxCell id="jdo_Bs8H3Nefda1nTduL-17" value="" style="edgeStyle=entityRelationEdgeStyle;fontSize=12;html=1;endArrow=ERmandOne;entryX=0;entryY=0.5;entryDx=0;entryDy=0;exitX=1;exitY=0.5;exitDx=0;exitDy=0;" parent="1" source="yyaonT6aETKzKUPkDrwu-5" target="jdo_Bs8H3Nefda1nTduL-1" edge="1">
          <mxGeometry width="100" height="100" relative="1" as="geometry">
            <mxPoint x="480" y="320" as="sourcePoint" />
            <mxPoint x="630" y="200" as="targetPoint" />
          </mxGeometry>
        </mxCell>
        <mxCell id="jdo_Bs8H3Nefda1nTduL-18" value="" style="edgeStyle=entityRelationEdgeStyle;fontSize=12;html=1;endArrow=ERmandOne;entryX=1;entryY=0.25;entryDx=0;entryDy=0;exitX=0.5;exitY=1;exitDx=0;exitDy=0;" parent="1" source="yyaonT6aETKzKUPkDrwu-5" target="jdo_Bs8H3Nefda1nTduL-10" edge="1">
          <mxGeometry width="100" height="100" relative="1" as="geometry">
            <mxPoint x="405" y="365" as="sourcePoint" />
            <mxPoint x="380" y="350" as="targetPoint" />
          </mxGeometry>
        </mxCell>
        <mxCell id="jdo_Bs8H3Nefda1nTduL-20" value="Lists" style="shape=rhombus;perimeter=rhombusPerimeter;whiteSpace=wrap;html=1;align=center;" parent="1" vertex="1">
          <mxGeometry x="1127" y="570" width="120" height="60" as="geometry" />
        </mxCell>
        <mxCell id="jdo_Bs8H3Nefda1nTduL-21" value="Listing" style="whiteSpace=wrap;html=1;align=center;" parent="1" vertex="1">
          <mxGeometry x="820" y="660" width="100" height="40" as="geometry" />
        </mxCell>
        <mxCell id="jdo_Bs8H3Nefda1nTduL-22" value="" style="edgeStyle=entityRelationEdgeStyle;fontSize=12;html=1;endArrow=ERzeroToMany;endFill=1;entryX=1;entryY=0.5;entryDx=0;entryDy=0;exitX=0;exitY=1;exitDx=0;exitDy=0;" parent="1" source="jdo_Bs8H3Nefda1nTduL-20" target="jdo_Bs8H3Nefda1nTduL-21" edge="1">
          <mxGeometry width="100" height="100" relative="1" as="geometry">
            <mxPoint x="1190" y="620" as="sourcePoint" />
            <mxPoint x="1330" y="650" as="targetPoint" />
          </mxGeometry>
        </mxCell>
        <mxCell id="jdo_Bs8H3Nefda1nTduL-25" value="" style="edgeStyle=entityRelationEdgeStyle;fontSize=12;html=1;endArrow=ERmandOne;entryX=1;entryY=0.5;entryDx=0;entryDy=0;exitX=0.5;exitY=0;exitDx=0;exitDy=0;" parent="1" source="yyaonT6aETKzKUPkDrwu-4" target="jdo_Bs8H3Nefda1nTduL-1" edge="1">
          <mxGeometry width="100" height="100" relative="1" as="geometry">
            <mxPoint x="1187.5" y="312.5" as="sourcePoint" />
            <mxPoint x="1030" y="120" as="targetPoint" />
          </mxGeometry>
        </mxCell>
        <mxCell id="jdo_Bs8H3Nefda1nTduL-26" value="listingID" style="ellipse;whiteSpace=wrap;html=1;align=center;fontStyle=4;" parent="1" vertex="1">
          <mxGeometry x="1230" y="780" width="100" height="40" as="geometry" />
        </mxCell>
        <mxCell id="jdo_Bs8H3Nefda1nTduL-27" value="" style="endArrow=none;html=1;rounded=0;entryX=0.5;entryY=0;entryDx=0;entryDy=0;exitX=0.5;exitY=1;exitDx=0;exitDy=0;" parent="1" source="jdo_Bs8H3Nefda1nTduL-21" target="jdo_Bs8H3Nefda1nTduL-26" edge="1">
          <mxGeometry relative="1" as="geometry">
            <mxPoint x="1270" y="460" as="sourcePoint" />
            <mxPoint x="1430" y="460" as="targetPoint" />
          </mxGeometry>
        </mxCell>
        <mxCell id="jdo_Bs8H3Nefda1nTduL-28" value="" style="edgeStyle=entityRelationEdgeStyle;fontSize=12;html=1;endArrow=ERone;endFill=1;entryX=0;entryY=0.75;entryDx=0;entryDy=0;exitX=0.5;exitY=0;exitDx=0;exitDy=0;" parent="1" source="jdo_Bs8H3Nefda1nTduL-20" target="jdo_Bs8H3Nefda1nTduL-9" edge="1">
          <mxGeometry width="100" height="100" relative="1" as="geometry">
            <mxPoint x="980" y="760" as="sourcePoint" />
            <mxPoint x="1080" y="660" as="targetPoint" />
          </mxGeometry>
        </mxCell>
        <mxCell id="jdo_Bs8H3Nefda1nTduL-29" value="itemName" style="ellipse;whiteSpace=wrap;html=1;align=center;" parent="1" vertex="1">
          <mxGeometry x="1100" y="780" width="100" height="40" as="geometry" />
        </mxCell>
        <mxCell id="jdo_Bs8H3Nefda1nTduL-30" value="" style="endArrow=none;html=1;rounded=0;entryX=0.5;entryY=1;entryDx=0;entryDy=0;exitX=0.5;exitY=0;exitDx=0;exitDy=0;" parent="1" source="jdo_Bs8H3Nefda1nTduL-29" target="jdo_Bs8H3Nefda1nTduL-21" edge="1">
          <mxGeometry relative="1" as="geometry">
            <mxPoint x="850" y="770" as="sourcePoint" />
            <mxPoint x="1010" y="770" as="targetPoint" />
          </mxGeometry>
        </mxCell>
        <mxCell id="jdo_Bs8H3Nefda1nTduL-31" value="itemDescription" style="ellipse;whiteSpace=wrap;html=1;align=center;" parent="1" vertex="1">
          <mxGeometry x="1127" y="860" width="100" height="40" as="geometry" />
        </mxCell>
        <mxCell id="jdo_Bs8H3Nefda1nTduL-34" value="" style="endArrow=none;html=1;rounded=0;entryX=0.5;entryY=1;entryDx=0;entryDy=0;exitX=0.5;exitY=0;exitDx=0;exitDy=0;" parent="1" source="jdo_Bs8H3Nefda1nTduL-31" target="jdo_Bs8H3Nefda1nTduL-21" edge="1">
          <mxGeometry relative="1" as="geometry">
            <mxPoint x="1040" y="810" as="sourcePoint" />
            <mxPoint x="1030" y="750" as="targetPoint" />
          </mxGeometry>
        </mxCell>
        <mxCell id="jdo_Bs8H3Nefda1nTduL-35" value="Bids/Buys" style="shape=rhombus;perimeter=rhombusPerimeter;whiteSpace=wrap;html=1;align=center;" parent="1" vertex="1">
          <mxGeometry x="590" y="585" width="120" height="60" as="geometry" />
        </mxCell>
        <mxCell id="jdo_Bs8H3Nefda1nTduL-37" value="" style="edgeStyle=entityRelationEdgeStyle;fontSize=12;html=1;endArrow=ERzeroToMany;endFill=1;entryX=0;entryY=0.25;entryDx=0;entryDy=0;exitX=1;exitY=1;exitDx=0;exitDy=0;" parent="1" source="jdo_Bs8H3Nefda1nTduL-35" target="jdo_Bs8H3Nefda1nTduL-21" edge="1">
          <mxGeometry width="100" height="100" relative="1" as="geometry">
            <mxPoint x="680" y="810" as="sourcePoint" />
            <mxPoint x="780" y="710" as="targetPoint" />
          </mxGeometry>
        </mxCell>
        <mxCell id="jdo_Bs8H3Nefda1nTduL-38" value="" style="edgeStyle=entityRelationEdgeStyle;fontSize=12;html=1;endArrow=ERzeroToMany;endFill=1;exitX=0;exitY=0.5;exitDx=0;exitDy=0;entryX=1;entryY=0.75;entryDx=0;entryDy=0;" parent="1" source="jdo_Bs8H3Nefda1nTduL-35" target="jdo_Bs8H3Nefda1nTduL-10" edge="1">
          <mxGeometry width="100" height="100" relative="1" as="geometry">
            <mxPoint x="690" y="640" as="sourcePoint" />
            <mxPoint x="510" y="510" as="targetPoint" />
          </mxGeometry>
        </mxCell>
        <mxCell id="jdo_Bs8H3Nefda1nTduL-40" value="" style="endArrow=none;html=1;rounded=0;entryX=0.5;entryY=0;entryDx=0;entryDy=0;exitX=0.5;exitY=1;exitDx=0;exitDy=0;" parent="1" source="jdo_Bs8H3Nefda1nTduL-35" target="mfhCSQvNzGBigoYCUfAT-106" edge="1">
          <mxGeometry relative="1" as="geometry">
            <mxPoint x="670" y="600" as="sourcePoint" />
            <mxPoint x="629.9999999999998" y="720" as="targetPoint" />
          </mxGeometry>
        </mxCell>
        <mxCell id="jdo_Bs8H3Nefda1nTduL-42" value="" style="endArrow=none;html=1;rounded=0;exitX=0.5;exitY=0;exitDx=0;exitDy=0;" parent="1" source="mfhCSQvNzGBigoYCUfAT-104" target="jdo_Bs8H3Nefda1nTduL-35" edge="1">
          <mxGeometry relative="1" as="geometry">
            <mxPoint x="489.9999999999998" y="675" as="sourcePoint" />
            <mxPoint x="910" y="610" as="targetPoint" />
          </mxGeometry>
        </mxCell>
        <mxCell id="jdo_Bs8H3Nefda1nTduL-43" value="end" style="ellipse;whiteSpace=wrap;html=1;align=center;" parent="1" vertex="1">
          <mxGeometry x="930" y="990" width="90" height="30" as="geometry" />
        </mxCell>
        <mxCell id="jdo_Bs8H3Nefda1nTduL-44" value="" style="endArrow=none;html=1;rounded=0;entryX=0.5;entryY=1;entryDx=0;entryDy=0;exitX=0.5;exitY=0;exitDx=0;exitDy=0;" parent="1" source="jdo_Bs8H3Nefda1nTduL-43" target="jdo_Bs8H3Nefda1nTduL-21" edge="1">
          <mxGeometry relative="1" as="geometry">
            <mxPoint x="955.3553390593274" y="815.8578643762689" as="sourcePoint" />
            <mxPoint x="880" y="710" as="targetPoint" />
          </mxGeometry>
        </mxCell>
        <mxCell id="jdo_Bs8H3Nefda1nTduL-45" value="Belongs to" style="shape=rhombus;perimeter=rhombusPerimeter;whiteSpace=wrap;html=1;align=center;" parent="1" vertex="1">
          <mxGeometry x="620" y="830" width="120" height="60" as="geometry" />
        </mxCell>
        <mxCell id="jdo_Bs8H3Nefda1nTduL-46" value="Category" style="whiteSpace=wrap;html=1;align=center;" parent="1" vertex="1">
          <mxGeometry x="540" y="980" width="100" height="40" as="geometry" />
        </mxCell>
        <mxCell id="jdo_Bs8H3Nefda1nTduL-50" value="" style="edgeStyle=entityRelationEdgeStyle;fontSize=12;html=1;endArrow=ERoneToMany;exitX=0.5;exitY=1;exitDx=0;exitDy=0;entryX=0.5;entryY=0;entryDx=0;entryDy=0;" parent="1" source="jdo_Bs8H3Nefda1nTduL-45" target="jdo_Bs8H3Nefda1nTduL-46" edge="1">
          <mxGeometry width="100" height="100" relative="1" as="geometry">
            <mxPoint x="767" y="870" as="sourcePoint" />
            <mxPoint x="940" y="690" as="targetPoint" />
          </mxGeometry>
        </mxCell>
        <mxCell id="mfhCSQvNzGBigoYCUfAT-18" style="edgeStyle=none;rounded=0;orthogonalLoop=1;jettySize=auto;html=1;exitX=1;exitY=1;exitDx=0;exitDy=0;entryX=0;entryY=0;entryDx=0;entryDy=0;endArrow=none;endFill=0;" parent="1" source="mfhCSQvNzGBigoYCUfAT-3" target="jdo_Bs8H3Nefda1nTduL-1" edge="1">
          <mxGeometry relative="1" as="geometry" />
        </mxCell>
        <mxCell id="mfhCSQvNzGBigoYCUfAT-3" value="&lt;u&gt;UserID&lt;/u&gt;" style="ellipse;whiteSpace=wrap;html=1;align=center;" parent="1" vertex="1">
          <mxGeometry x="570" y="150" width="100" height="40" as="geometry" />
        </mxCell>
        <mxCell id="mfhCSQvNzGBigoYCUfAT-17" style="edgeStyle=none;rounded=0;orthogonalLoop=1;jettySize=auto;html=1;exitX=0.5;exitY=1;exitDx=0;exitDy=0;entryX=0.25;entryY=0;entryDx=0;entryDy=0;endArrow=none;endFill=0;" parent="1" source="mfhCSQvNzGBigoYCUfAT-7" target="jdo_Bs8H3Nefda1nTduL-1" edge="1">
          <mxGeometry relative="1" as="geometry" />
        </mxCell>
        <mxCell id="mfhCSQvNzGBigoYCUfAT-7" value="email" style="ellipse;whiteSpace=wrap;html=1;align=center;" parent="1" vertex="1">
          <mxGeometry x="680" y="150" width="100" height="40" as="geometry" />
        </mxCell>
        <mxCell id="mfhCSQvNzGBigoYCUfAT-16" style="edgeStyle=none;rounded=0;orthogonalLoop=1;jettySize=auto;html=1;exitX=0.5;exitY=1;exitDx=0;exitDy=0;entryX=0.5;entryY=0;entryDx=0;entryDy=0;endArrow=none;endFill=0;" parent="1" target="jdo_Bs8H3Nefda1nTduL-1" edge="1">
          <mxGeometry relative="1" as="geometry">
            <mxPoint x="839.9999999999998" y="190" as="sourcePoint" />
          </mxGeometry>
        </mxCell>
        <mxCell id="mfhCSQvNzGBigoYCUfAT-19" style="edgeStyle=none;rounded=0;orthogonalLoop=1;jettySize=auto;html=1;exitX=0;exitY=1;exitDx=0;exitDy=0;entryX=0.75;entryY=0;entryDx=0;entryDy=0;endArrow=none;endFill=0;" parent="1" source="mfhCSQvNzGBigoYCUfAT-13" target="jdo_Bs8H3Nefda1nTduL-1" edge="1">
          <mxGeometry relative="1" as="geometry" />
        </mxCell>
        <mxCell id="mfhCSQvNzGBigoYCUfAT-13" value="password" style="ellipse;whiteSpace=wrap;html=1;align=center;" parent="1" vertex="1">
          <mxGeometry x="910" y="150" width="100" height="40" as="geometry" />
        </mxCell>
        <mxCell id="mfhCSQvNzGBigoYCUfAT-27" value="itemImage" style="ellipse;whiteSpace=wrap;html=1;align=center;" parent="1" vertex="1">
          <mxGeometry x="970" y="900" width="90" height="30" as="geometry" />
        </mxCell>
        <mxCell id="mfhCSQvNzGBigoYCUfAT-28" value="" style="endArrow=none;html=1;rounded=0;exitX=0.5;exitY=0;exitDx=0;exitDy=0;" parent="1" source="mfhCSQvNzGBigoYCUfAT-27" edge="1">
          <mxGeometry relative="1" as="geometry">
            <mxPoint x="1055.3553390593274" y="925.8578643762689" as="sourcePoint" />
            <mxPoint x="870" y="700" as="targetPoint" />
          </mxGeometry>
        </mxCell>
        <mxCell id="mfhCSQvNzGBigoYCUfAT-29" value="reservePrice" style="ellipse;whiteSpace=wrap;html=1;align=center;" parent="1" vertex="1">
          <mxGeometry x="1240" y="660" width="110" height="30" as="geometry" />
        </mxCell>
        <mxCell id="mfhCSQvNzGBigoYCUfAT-30" value="" style="endArrow=none;html=1;rounded=0;entryX=1;entryY=1;entryDx=0;entryDy=0;exitX=0;exitY=0.5;exitDx=0;exitDy=0;" parent="1" source="mfhCSQvNzGBigoYCUfAT-29" edge="1">
          <mxGeometry relative="1" as="geometry">
            <mxPoint x="1005.3553390593274" y="925.8578643762689" as="sourcePoint" />
            <mxPoint x="870.0000000000002" y="700" as="targetPoint" />
            <Array as="points">
              <mxPoint x="1030" y="700" />
            </Array>
          </mxGeometry>
        </mxCell>
        <mxCell id="mfhCSQvNzGBigoYCUfAT-41" value="" style="endArrow=none;html=1;rounded=0;" parent="1" edge="1">
          <mxGeometry relative="1" as="geometry">
            <mxPoint x="1240" y="730" as="sourcePoint" />
            <mxPoint x="870" y="700" as="targetPoint" />
          </mxGeometry>
        </mxCell>
        <mxCell id="mfhCSQvNzGBigoYCUfAT-42" value="start" style="ellipse;whiteSpace=wrap;html=1;align=center;" parent="1" vertex="1">
          <mxGeometry x="1235" y="715" width="90" height="30" as="geometry" />
        </mxCell>
        <mxCell id="mfhCSQvNzGBigoYCUfAT-44" value="" style="endArrow=none;html=1;rounded=0;entryX=1;entryY=0.5;entryDx=0;entryDy=0;exitX=0.361;exitY=0.871;exitDx=0;exitDy=0;exitPerimeter=0;" parent="1" source="jdo_Bs8H3Nefda1nTduL-35" target="mfhCSQvNzGBigoYCUfAT-105" edge="1">
          <mxGeometry relative="1" as="geometry">
            <mxPoint x="639.473684210526" y="634.7368421052631" as="sourcePoint" />
            <mxPoint x="509.9999999999998" y="800" as="targetPoint" />
          </mxGeometry>
        </mxCell>
        <mxCell id="mfhCSQvNzGBigoYCUfAT-49" value="" style="edgeStyle=none;rounded=0;orthogonalLoop=1;jettySize=auto;html=1;endArrow=none;endFill=0;" parent="1" target="mfhCSQvNzGBigoYCUfAT-48" edge="1">
          <mxGeometry relative="1" as="geometry">
            <mxPoint x="839.9999999999998" y="150" as="sourcePoint" />
          </mxGeometry>
        </mxCell>
        <mxCell id="mfhCSQvNzGBigoYCUfAT-48" value="City" style="ellipse;whiteSpace=wrap;html=1;align=center;" parent="1" vertex="1">
          <mxGeometry x="790" y="30" width="100" height="40" as="geometry" />
        </mxCell>
        <mxCell id="mfhCSQvNzGBigoYCUfAT-50" value="" style="edgeStyle=none;rounded=0;orthogonalLoop=1;jettySize=auto;html=1;exitX=0.5;exitY=0;exitDx=0;exitDy=0;endArrow=none;endFill=0;" parent="1" target="mfhCSQvNzGBigoYCUfAT-51" edge="1">
          <mxGeometry relative="1" as="geometry">
            <mxPoint x="839.9999999999998" y="150" as="sourcePoint" />
          </mxGeometry>
        </mxCell>
        <mxCell id="mfhCSQvNzGBigoYCUfAT-51" value="House Number" style="ellipse;whiteSpace=wrap;html=1;align=center;" parent="1" vertex="1">
          <mxGeometry x="900" y="30" width="100" height="40" as="geometry" />
        </mxCell>
        <mxCell id="mfhCSQvNzGBigoYCUfAT-52" value="" style="edgeStyle=none;rounded=0;orthogonalLoop=1;jettySize=auto;html=1;exitX=0.5;exitY=0;exitDx=0;exitDy=0;endArrow=none;endFill=0;" parent="1" target="mfhCSQvNzGBigoYCUfAT-53" edge="1">
          <mxGeometry relative="1" as="geometry">
            <mxPoint x="839.9999999999998" y="150" as="sourcePoint" />
          </mxGeometry>
        </mxCell>
        <mxCell id="mfhCSQvNzGBigoYCUfAT-53" value="Post Code" style="ellipse;whiteSpace=wrap;html=1;align=center;" parent="1" vertex="1">
          <mxGeometry x="680" y="30" width="100" height="40" as="geometry" />
        </mxCell>
        <mxCell id="mfhCSQvNzGBigoYCUfAT-58" style="edgeStyle=none;rounded=0;orthogonalLoop=1;jettySize=auto;html=1;exitX=0.5;exitY=1;exitDx=0;exitDy=0;entryX=0;entryY=0.25;entryDx=0;entryDy=0;endArrow=none;endFill=0;" parent="1" target="jdo_Bs8H3Nefda1nTduL-1" edge="1">
          <mxGeometry relative="1" as="geometry">
            <mxPoint x="544.9999999999998" y="300" as="targetPoint" />
            <mxPoint x="480" y="190" as="sourcePoint" />
          </mxGeometry>
        </mxCell>
        <mxCell id="mfhCSQvNzGBigoYCUfAT-60" value="Street" style="ellipse;whiteSpace=wrap;html=1;align=center;" parent="1" vertex="1">
          <mxGeometry x="1027" y="30" width="100" height="40" as="geometry" />
        </mxCell>
        <mxCell id="mfhCSQvNzGBigoYCUfAT-61" value="" style="edgeStyle=none;rounded=0;orthogonalLoop=1;jettySize=auto;html=1;exitX=0.5;exitY=0;exitDx=0;exitDy=0;endArrow=none;endFill=0;entryX=0.5;entryY=1;entryDx=0;entryDy=0;" parent="1" target="mfhCSQvNzGBigoYCUfAT-60" edge="1">
          <mxGeometry relative="1" as="geometry">
            <mxPoint x="839.9999999999998" y="150" as="sourcePoint" />
            <mxPoint x="939.9534045555647" y="78.32215712663469" as="targetPoint" />
          </mxGeometry>
        </mxCell>
        <mxCell id="mfhCSQvNzGBigoYCUfAT-67" value="" style="edgeStyle=none;rounded=0;orthogonalLoop=1;jettySize=auto;html=1;endArrow=none;endFill=0;exitX=0;exitY=0.5;exitDx=0;exitDy=0;" parent="1" target="mfhCSQvNzGBigoYCUfAT-68" edge="1">
          <mxGeometry relative="1" as="geometry">
            <mxPoint x="430" y="170" as="sourcePoint" />
          </mxGeometry>
        </mxCell>
        <mxCell id="mfhCSQvNzGBigoYCUfAT-68" value="fName" style="ellipse;whiteSpace=wrap;html=1;align=center;" parent="1" vertex="1">
          <mxGeometry x="300" y="100" width="100" height="40" as="geometry" />
        </mxCell>
        <mxCell id="mfhCSQvNzGBigoYCUfAT-69" value="lName" style="ellipse;whiteSpace=wrap;html=1;align=center;" parent="1" vertex="1">
          <mxGeometry x="300" y="190" width="100" height="40" as="geometry" />
        </mxCell>
        <mxCell id="mfhCSQvNzGBigoYCUfAT-70" value="" style="edgeStyle=none;rounded=0;orthogonalLoop=1;jettySize=auto;html=1;endArrow=none;endFill=0;exitX=0;exitY=0.5;exitDx=0;exitDy=0;entryX=1;entryY=0.5;entryDx=0;entryDy=0;" parent="1" target="mfhCSQvNzGBigoYCUfAT-69" edge="1">
          <mxGeometry relative="1" as="geometry">
            <mxPoint x="430" y="170" as="sourcePoint" />
            <mxPoint x="386.8957038128599" y="146.8599934349271" as="targetPoint" />
          </mxGeometry>
        </mxCell>
        <mxCell id="mfhCSQvNzGBigoYCUfAT-92" value="winningBid" style="ellipse;whiteSpace=wrap;html=1;align=center;" parent="1" vertex="1">
          <mxGeometry x="800" y="1040" width="90" height="30" as="geometry" />
        </mxCell>
        <mxCell id="mfhCSQvNzGBigoYCUfAT-93" value="" style="endArrow=none;html=1;rounded=0;exitX=0.5;exitY=0;exitDx=0;exitDy=0;entryX=0.25;entryY=1;entryDx=0;entryDy=0;" parent="1" source="mfhCSQvNzGBigoYCUfAT-92" target="jdo_Bs8H3Nefda1nTduL-21" edge="1">
          <mxGeometry relative="1" as="geometry">
            <mxPoint x="975.3553390593274" y="835.8578643762689" as="sourcePoint" />
            <mxPoint x="879.9999999999998" y="710" as="targetPoint" />
          </mxGeometry>
        </mxCell>
        <mxCell id="mfhCSQvNzGBigoYCUfAT-94" value="homeAddress" style="ellipse;whiteSpace=wrap;html=1;align=center;" parent="1" vertex="1">
          <mxGeometry x="790" y="150" width="100" height="40" as="geometry" />
        </mxCell>
        <mxCell id="mfhCSQvNzGBigoYCUfAT-95" value="" style="endArrow=none;html=1;rounded=0;entryX=1;entryY=0.5;entryDx=0;entryDy=0;" parent="1" target="mfhCSQvNzGBigoYCUfAT-42" edge="1">
          <mxGeometry relative="1" as="geometry">
            <mxPoint x="1360" y="690" as="sourcePoint" />
            <mxPoint x="989.9999999999998" y="660" as="targetPoint" />
          </mxGeometry>
        </mxCell>
        <mxCell id="mfhCSQvNzGBigoYCUfAT-96" value="startTime" style="ellipse;whiteSpace=wrap;html=1;align=center;" parent="1" vertex="1">
          <mxGeometry x="1355" y="675" width="90" height="30" as="geometry" />
        </mxCell>
        <mxCell id="mfhCSQvNzGBigoYCUfAT-99" value="" style="endArrow=none;html=1;rounded=0;entryX=0.5;entryY=1;entryDx=0;entryDy=0;exitX=0;exitY=0.5;exitDx=0;exitDy=0;" parent="1" source="mfhCSQvNzGBigoYCUfAT-100" target="jdo_Bs8H3Nefda1nTduL-43" edge="1">
          <mxGeometry relative="1" as="geometry">
            <mxPoint x="1015" y="1070" as="sourcePoint" />
            <mxPoint x="979.9999999999909" y="1082.5" as="targetPoint" />
          </mxGeometry>
        </mxCell>
        <mxCell id="mfhCSQvNzGBigoYCUfAT-100" value="endTime" style="ellipse;whiteSpace=wrap;html=1;align=center;" parent="1" vertex="1">
          <mxGeometry x="1020" y="1050" width="90" height="30" as="geometry" />
        </mxCell>
        <mxCell id="mfhCSQvNzGBigoYCUfAT-104" value="bidID" style="shape=associativeEntity;whiteSpace=wrap;html=1;align=center;" parent="1" vertex="1">
          <mxGeometry x="420" y="675" width="120" height="45" as="geometry" />
        </mxCell>
        <mxCell id="mfhCSQvNzGBigoYCUfAT-105" value="bidTimestamp" style="shape=associativeEntity;whiteSpace=wrap;html=1;align=center;" parent="1" vertex="1">
          <mxGeometry x="400" y="755" width="120" height="45" as="geometry" />
        </mxCell>
        <mxCell id="mfhCSQvNzGBigoYCUfAT-106" value="bidPrice" style="shape=associativeEntity;whiteSpace=wrap;html=1;align=center;" parent="1" vertex="1">
          <mxGeometry x="570" y="720" width="120" height="45" as="geometry" />
        </mxCell>
        <mxCell id="mfhCSQvNzGBigoYCUfAT-126" value="startPrice" style="ellipse;whiteSpace=wrap;html=1;align=center;" parent="1" vertex="1">
          <mxGeometry x="1290" y="610" width="110" height="30" as="geometry" />
        </mxCell>
        <mxCell id="mfhCSQvNzGBigoYCUfAT-127" value="" style="endArrow=none;html=1;rounded=0;exitX=0;exitY=0.5;exitDx=0;exitDy=0;" parent="1" source="mfhCSQvNzGBigoYCUfAT-126" edge="1">
          <mxGeometry relative="1" as="geometry">
            <mxPoint x="1287" y="720" as="sourcePoint" />
            <mxPoint x="917" y="700" as="targetPoint" />
          </mxGeometry>
        </mxCell>
        <mxCell id="mfhCSQvNzGBigoYCUfAT-128" value="" style="edgeStyle=entityRelationEdgeStyle;fontSize=12;html=1;endArrow=ERoneToMany;entryX=0;entryY=0.75;entryDx=0;entryDy=0;exitX=1;exitY=0;exitDx=0;exitDy=0;" parent="1" source="jdo_Bs8H3Nefda1nTduL-45" target="jdo_Bs8H3Nefda1nTduL-21" edge="1">
          <mxGeometry width="100" height="100" relative="1" as="geometry">
            <mxPoint x="590" y="850" as="sourcePoint" />
            <mxPoint x="770" y="745" as="targetPoint" />
          </mxGeometry>
        </mxCell>
        <mxCell id="mfhCSQvNzGBigoYCUfAT-129" value="Has" style="shape=rhombus;perimeter=rhombusPerimeter;whiteSpace=wrap;html=1;align=center;" parent="1" vertex="1">
          <mxGeometry x="520" y="1095" width="120" height="60" as="geometry" />
        </mxCell>
        <mxCell id="mfhCSQvNzGBigoYCUfAT-132" value="" style="endArrow=none;html=1;rounded=0;entryX=0.5;entryY=1;entryDx=0;entryDy=0;" parent="1" edge="1">
          <mxGeometry relative="1" as="geometry">
            <mxPoint x="640" y="980" as="sourcePoint" />
            <mxPoint x="700" y="929.9999999999998" as="targetPoint" />
          </mxGeometry>
        </mxCell>
        <mxCell id="mfhCSQvNzGBigoYCUfAT-136" value="" style="endArrow=none;html=1;rounded=0;entryX=1;entryY=0.5;entryDx=0;entryDy=0;exitX=0;exitY=0.5;exitDx=0;exitDy=0;" parent="1" source="mfhCSQvNzGBigoYCUfAT-137" target="mfhCSQvNzGBigoYCUfAT-100" edge="1">
          <mxGeometry relative="1" as="geometry">
            <mxPoint x="1240" y="1100" as="sourcePoint" />
            <mxPoint x="1199.9999999999998" y="1050" as="targetPoint" />
          </mxGeometry>
        </mxCell>
        <mxCell id="mfhCSQvNzGBigoYCUfAT-137" value="timeRemaining" style="ellipse;whiteSpace=wrap;html=1;align=center;" parent="1" vertex="1">
          <mxGeometry x="1320" y="900" width="90" height="30" as="geometry" />
        </mxCell>
        <mxCell id="mfhCSQvNzGBigoYCUfAT-138" value="" style="endArrow=none;html=1;rounded=0;entryX=1;entryY=0.5;entryDx=0;entryDy=0;exitX=0.5;exitY=0;exitDx=0;exitDy=0;" parent="1" source="mfhCSQvNzGBigoYCUfAT-137" target="mfhCSQvNzGBigoYCUfAT-96" edge="1">
          <mxGeometry relative="1" as="geometry">
            <mxPoint x="1570" y="958" as="sourcePoint" />
            <mxPoint x="1159.9999999999952" y="1028" as="targetPoint" />
          </mxGeometry>
        </mxCell>
        <mxCell id="mfhCSQvNzGBigoYCUfAT-139" value="" style="endArrow=none;html=1;rounded=0;entryX=0.25;entryY=1;entryDx=0;entryDy=0;" parent="1" edge="1">
          <mxGeometry relative="1" as="geometry">
            <mxPoint x="930" y="1080" as="sourcePoint" />
            <mxPoint x="871.4099999999997" y="700" as="targetPoint" />
            <Array as="points" />
          </mxGeometry>
        </mxCell>
        <mxCell id="mfhCSQvNzGBigoYCUfAT-140" value="allBids" style="ellipse;whiteSpace=wrap;html=1;align=center;" parent="1" vertex="1">
          <mxGeometry x="890" y="1080" width="90" height="30" as="geometry" />
        </mxCell>
        <mxCell id="jAN6Pm0lT5QuEJ-GA6cV-1" value="name" style="ellipse;whiteSpace=wrap;html=1;align=center;" parent="1" vertex="1">
          <mxGeometry x="430" y="150" width="100" height="40" as="geometry" />
        </mxCell>
        <mxCell id="jAN6Pm0lT5QuEJ-GA6cV-9" value="" style="edgeStyle=entityRelationEdgeStyle;fontSize=12;html=1;endArrow=ERmandOne;entryX=1;entryY=0.5;entryDx=0;entryDy=0;exitX=1;exitY=0.5;exitDx=0;exitDy=0;" parent="1" target="jdo_Bs8H3Nefda1nTduL-46" edge="1" source="mfhCSQvNzGBigoYCUfAT-129">
          <mxGeometry width="100" height="100" relative="1" as="geometry">
            <mxPoint x="650" y="1090" as="sourcePoint" />
            <mxPoint x="750" y="990" as="targetPoint" />
          </mxGeometry>
        </mxCell>
        <mxCell id="jAN6Pm0lT5QuEJ-GA6cV-11" value="" style="edgeStyle=entityRelationEdgeStyle;fontSize=12;html=1;endArrow=ERmany;entryX=0;entryY=0.5;entryDx=0;entryDy=0;exitX=0;exitY=0.5;exitDx=0;exitDy=0;" parent="1" source="mfhCSQvNzGBigoYCUfAT-129" target="jdo_Bs8H3Nefda1nTduL-46" edge="1">
          <mxGeometry width="100" height="100" relative="1" as="geometry">
            <mxPoint x="360" y="1100" as="sourcePoint" />
            <mxPoint x="470" y="1150" as="targetPoint" />
          </mxGeometry>
        </mxCell>
        <mxCell id="jAN6Pm0lT5QuEJ-GA6cV-12" value="categoryID" style="ellipse;whiteSpace=wrap;html=1;align=center;fontStyle=4;" parent="1" vertex="1">
          <mxGeometry x="719" y="940" width="100" height="40" as="geometry" />
        </mxCell>
        <mxCell id="jAN6Pm0lT5QuEJ-GA6cV-13" value="" style="endArrow=none;html=1;rounded=0;exitX=1;exitY=0;exitDx=0;exitDy=0;" parent="1" source="jdo_Bs8H3Nefda1nTduL-46" target="jAN6Pm0lT5QuEJ-GA6cV-12" edge="1">
          <mxGeometry relative="1" as="geometry">
            <mxPoint x="690" y="875" as="sourcePoint" />
            <mxPoint x="342" y="935" as="targetPoint" />
          </mxGeometry>
        </mxCell>
        <mxCell id="jAN6Pm0lT5QuEJ-GA6cV-14" value="categoryName" style="ellipse;whiteSpace=wrap;html=1;align=center;" parent="1" vertex="1">
          <mxGeometry x="650" y="900" width="90" height="30" as="geometry" />
        </mxCell>
        <mxCell id="jAN6Pm0lT5QuEJ-GA6cV-15" value="adds to watchlist" style="shape=rhombus;double=1;perimeter=rhombusPerimeter;whiteSpace=wrap;html=1;align=center;shadow=0;sketch=0;strokeColor=#000000;gradientColor=none;" parent="1" vertex="1">
          <mxGeometry x="340" y="867.5" width="150" height="95" as="geometry" />
        </mxCell>
        <mxCell id="jAN6Pm0lT5QuEJ-GA6cV-16" value="" style="edgeStyle=entityRelationEdgeStyle;fontSize=12;html=1;endArrow=ERzeroToMany;endFill=1;entryX=0;entryY=0.5;entryDx=0;entryDy=0;exitX=1;exitY=0.5;exitDx=0;exitDy=0;" parent="1" source="jAN6Pm0lT5QuEJ-GA6cV-15" target="jdo_Bs8H3Nefda1nTduL-21" edge="1">
          <mxGeometry width="100" height="100" relative="1" as="geometry">
            <mxPoint x="380" y="1044" as="sourcePoint" />
            <mxPoint x="740" y="450" as="targetPoint" />
          </mxGeometry>
        </mxCell>
        <mxCell id="jAN6Pm0lT5QuEJ-GA6cV-17" value="" style="fontSize=12;html=1;endArrow=ERzeroToMany;endFill=1;exitX=0.5;exitY=0;exitDx=0;exitDy=0;edgeStyle=entityRelationEdgeStyle;entryX=0.25;entryY=1;entryDx=0;entryDy=0;" parent="1" source="jAN6Pm0lT5QuEJ-GA6cV-15" target="jdo_Bs8H3Nefda1nTduL-10" edge="1">
          <mxGeometry width="100" height="100" relative="1" as="geometry">
            <mxPoint x="230" y="560" as="sourcePoint" />
            <mxPoint x="150" y="510" as="targetPoint" />
          </mxGeometry>
        </mxCell>
        <mxCell id="yyaonT6aETKzKUPkDrwu-4" value="Has permissions of" style="shape=rhombus;double=1;perimeter=rhombusPerimeter;whiteSpace=wrap;html=1;align=center;" parent="1" vertex="1">
          <mxGeometry x="1185" y="300" width="150" height="70" as="geometry" />
        </mxCell>
        <mxCell id="yyaonT6aETKzKUPkDrwu-5" value="Has permissions of" style="shape=rhombus;double=1;perimeter=rhombusPerimeter;whiteSpace=wrap;html=1;align=center;" parent="1" vertex="1">
          <mxGeometry x="320" y="285" width="150" height="70" as="geometry" />
        </mxCell>
        <mxCell id="xS7GmeacJNWUDyaj3ZgE-4" value="Sub-Category" style="text;html=1;align=center;verticalAlign=middle;resizable=0;points=[];autosize=1;rotation=0;" vertex="1" parent="1">
          <mxGeometry x="455" y="1020" width="90" height="20" as="geometry" />
        </mxCell>
        <mxCell id="xS7GmeacJNWUDyaj3ZgE-7" value="Department" style="text;html=1;align=center;verticalAlign=middle;resizable=0;points=[];autosize=1;" vertex="1" parent="1">
          <mxGeometry x="630" y="1020" width="80" height="20" as="geometry" />
        </mxCell>
        <mxCell id="xS7GmeacJNWUDyaj3ZgE-10" value="Watchlist" style="whiteSpace=wrap;html=1;align=center;" vertex="1" parent="1">
          <mxGeometry x="150" y="845" width="120" height="55" as="geometry" />
        </mxCell>
        <mxCell id="xS7GmeacJNWUDyaj3ZgE-11" value="" style="edgeStyle=entityRelationEdgeStyle;fontSize=12;html=1;endArrow=ERmany;exitX=0;exitY=0.5;exitDx=0;exitDy=0;entryX=1;entryY=0.5;entryDx=0;entryDy=0;" edge="1" parent="1" source="jAN6Pm0lT5QuEJ-GA6cV-15" target="xS7GmeacJNWUDyaj3ZgE-10">
          <mxGeometry width="100" height="100" relative="1" as="geometry">
            <mxPoint x="220" y="1035" as="sourcePoint" />
            <mxPoint x="290" y="910" as="targetPoint" />
          </mxGeometry>
        </mxCell>
        <mxCell id="xS7GmeacJNWUDyaj3ZgE-13" value="watchID" style="ellipse;whiteSpace=wrap;html=1;align=center;fontStyle=4;" vertex="1" parent="1">
          <mxGeometry x="200" y="725" width="100" height="40" as="geometry" />
        </mxCell>
        <mxCell id="xS7GmeacJNWUDyaj3ZgE-14" value="" style="endArrow=none;html=1;rounded=0;exitX=0.5;exitY=0;exitDx=0;exitDy=0;entryX=0.5;entryY=1;entryDx=0;entryDy=0;" edge="1" parent="1" source="xS7GmeacJNWUDyaj3ZgE-10" target="xS7GmeacJNWUDyaj3ZgE-13">
          <mxGeometry relative="1" as="geometry">
            <mxPoint x="130" y="867.5" as="sourcePoint" />
            <mxPoint x="290" y="867.5" as="targetPoint" />
          </mxGeometry>
        </mxCell>
        <mxCell id="xS7GmeacJNWUDyaj3ZgE-16" value="" style="endArrow=none;html=1;rounded=0;exitX=0.625;exitY=1.051;exitDx=0;exitDy=0;exitPerimeter=0;entryX=0.5;entryY=0;entryDx=0;entryDy=0;" edge="1" parent="1" source="xS7GmeacJNWUDyaj3ZgE-10" target="xS7GmeacJNWUDyaj3ZgE-17">
          <mxGeometry relative="1" as="geometry">
            <mxPoint x="130" y="999.41" as="sourcePoint" />
            <mxPoint x="330" y="960" as="targetPoint" />
            <Array as="points" />
          </mxGeometry>
        </mxCell>
        <mxCell id="xS7GmeacJNWUDyaj3ZgE-17" value="isWatching" style="ellipse;whiteSpace=wrap;html=1;align=center;" vertex="1" parent="1">
          <mxGeometry x="300" y="962.5" width="90" height="30" as="geometry" />
        </mxCell>
        <mxCell id="xS7GmeacJNWUDyaj3ZgE-20" value="Watchlist Notifications" style="whiteSpace=wrap;html=1;align=center;" vertex="1" parent="1">
          <mxGeometry x="90" y="972.5" width="140" height="77.5" as="geometry" />
        </mxCell>
        <mxCell id="xS7GmeacJNWUDyaj3ZgE-22" value="" style="edgeStyle=entityRelationEdgeStyle;fontSize=12;html=1;endArrow=ERzeroToMany;startArrow=ERmandOne;exitX=0.133;exitY=1.057;exitDx=0;exitDy=0;exitPerimeter=0;entryX=0.573;entryY=0.008;entryDx=0;entryDy=0;entryPerimeter=0;" edge="1" parent="1" source="xS7GmeacJNWUDyaj3ZgE-10" target="xS7GmeacJNWUDyaj3ZgE-20">
          <mxGeometry width="100" height="100" relative="1" as="geometry">
            <mxPoint x="150" y="960" as="sourcePoint" />
            <mxPoint x="250" y="860" as="targetPoint" />
          </mxGeometry>
        </mxCell>
      </root>
    </mxGraphModel>
  </diagram>
</mxfile>
